<svg xmlns="http://www.w3.org/2000/svg" width="50" height="50" viewBox="0 0 13.229 13.229" xmlns:v="https://vecta.io/nano"><defs><linearGradient id="A" x1="24.424" y1=".505" x2="24.424" y2="47.755" gradientUnits="userSpaceOnUse"><stop stop-color="#37bbfe"/><stop offset="1" stop-color="#007dbb"/></linearGradient></defs><g transform="matrix(.2646 0 0 .2646 .152347 .230188)"><circle cx="24.424" cy="24.13" r="23.625" fill="url(#A)"/><path d="M36.214 14.357c.21-1.359-1.082-2.432-2.291-1.902L9.852 23.025c-.867.381-.803 1.693.096 1.98l4.964 1.581a3.2 3.2 0 0 0 2.801-.426l11.192-7.732c.337-.233.705.247.417.544l-8.056 8.306c-.782.806-.626 2.171.314 2.761l9.02 5.656c1.012.634 2.313-.003 2.502-1.225z" fill="#fff"/></g></svg>