<svg xmlns="http://www.w3.org/2000/svg" width="23" height="23" viewBox="0 0 6.085 6.085" xmlns:v="https://vecta.io/nano"><path d="M.725 0C.325 0 0 .325 0 .725v4.636c0 .4.325.725.725.725h4.636c.4 0 .725-.325.725-.725V.725c0-.4-.325-.725-.725-.725H.725zm.725 1.159c.261 0 .424.155.435.358 0 .203-.162.366-.435.366-.261 0-.435-.164-.435-.366s.174-.358.435-.358zm-.435 1.159h.869v2.753h-.869V2.318zm1.304 0h.869v.371s.28-.371.842-.371c.575 0 1.042.396 1.042 1.197v1.556h-.869V3.623c0-.29-.145-.58-.507-.585h-.012c-.351 0-.496.299-.496.585v1.448h-.869V2.318z"/></svg>