<svg xmlns="http://www.w3.org/2000/svg" width="20" height="20" viewBox="0 0 5.292 5.292" xmlns:v="https://vecta.io/nano"><defs><clipPath id="A"><path fill="#fff" d="M-5.332.231H-.04v5.292h-5.292z" stroke-width=".265"/></clipPath></defs><path clip-path="url(#A)" d="M-3.193.187c-1.02 0-1.852.832-1.852 1.852v1.94c0 .07.028.137.077.187s.117.077.187.077.137-.028.187-.077.077-.117.077-.187v-1.94A1.32 1.32 0 0 1-3.193.716h1.058c.07 0 .137-.028.187-.077a.26.26 0 0 0 .077-.187c0-.07-.028-.137-.077-.187s-.117-.077-.187-.077zm1.807.925l-1.94.001a.79.79 0 0 0-.794.794v2.822a.79.79 0 0 0 .794.794h1.94a.79.79 0 0 0 .794-.794V1.906a.79.79 0 0 0-.794-.794z" transform="matrix(.999937 0 0 .999937 5.464257 -.230985)"/></svg>