<svg xmlns="http://www.w3.org/2000/svg" width="20" height="20" viewBox="0 0 5.292 5.292" xmlns:v="https://vecta.io/nano"><path d="M2.692.066C1.294.066.158 1.194.158 2.581c0 .449.12.888.347 1.272L.07 5.137c-.008.024-.002.051.016.069s.03.02.048.02c.007 0 .013-.001.02-.003l1.339-.426a2.55 2.55 0 0 0 1.199.299c1.397 0 2.534-1.128 2.534-2.515S4.089.066 2.692.066zm0 .524c1.107 0 2.007.893 2.007 1.991s-.9 1.991-2.007 1.991a2.01 2.01 0 0 1-1.105-.329c-.011-.007-.024-.011-.037-.011-.007 0-.014.001-.02.003l-.671.213.217-.639c.007-.021.004-.044-.009-.061-.25-.342-.382-.745-.382-1.167C.684 1.483 1.585.59 2.692.59zm-.686.81c-.007 0 0 0-.029.002a.9.9 0 0 0-.313.08c-.09.057-.243.238-.243.557 0 .287.182.558.26.661.31.453.684.777 1.062.928.364.145.537.162.635.162.041 0 .074-.003.103-.006l.019-.002c.126-.011.402-.154.465-.329.05-.138.063-.288.03-.343-.023-.037-.062-.056-.111-.08l-.453-.214c-.027-.01-.057-.019-.088-.019-.051 0-.093.025-.127.075a3.47 3.47 0 0 1-.187.228c-.018.011-.076-.013-.094-.02-.403-.175-.71-.597-.752-.668-.005-.02.009-.034.016-.041.02-.02.043-.047.064-.073l.03-.036c.031-.036.045-.065.061-.097l.009-.017c.039-.078.006-.144-.005-.165s-.168-.401-.184-.441c-.041-.097-.094-.143-.169-.143z"/></svg>