<svg xmlns="http://www.w3.org/2000/svg" width="20" height="20" viewBox="0 0 5.292 5.292" xmlns:v="https://vecta.io/nano"><path d="M2.835.21c-.161.007-.193.127-.197.199-.01.172.156.184.236.19l.053.005c1.07.165 1.562.671 1.698 1.749.002.018.003.041.003.065.001.084.004.259.192.263h.006c.059 0 .106-.018.14-.053.059-.061.054-.152.051-.225l-.001-.05C5.029 1.25 4.074.25 2.972.213l-.026.001a.6.6 0 0 1-.039-.002L2.851.21zM1.112.452c-.055 0-.112.01-.169.029C.655.578.448.748.345.972c-.1.217-.095.472.013.737.312.767.752 1.435 1.305 1.987.542.54 1.208.982 1.98 1.315.07.03.143.046.196.058l.045.011.025.003c.363 0 .799-.331.933-.71.117-.331-.097-.495-.269-.626l-.068-.053-.361-.265-.074-.052c-.154-.108-.292-.161-.423-.161-.176 0-.33.098-.456.289-.056.085-.124.127-.208.127-.05 0-.106-.014-.167-.042-.497-.225-.852-.571-1.055-1.027-.098-.22-.066-.364.106-.482.098-.067.28-.19.267-.427-.015-.269-.608-1.08-.859-1.172-.053-.019-.107-.029-.163-.029zm1.805.379c-.149 0-.188.105-.199.167s0 .111.029.151c.049.067.136.079.205.088l.056.009c.651.146.871.374.978 1.02.003.016.003.035.005.056.005.077.014.238.187.238.014 0 .03-.001.046-.004.161-.024.156-.171.153-.242v-.051C4.383 1.567 3.798.937 3.073.85L3.027.843C2.991.837 2.954.831 2.916.831zm.119.643c-.062.002-.192.005-.237.136-.021.062-.019.115.008.159.039.064.112.084.179.095a.42.42 0 0 1 .394.424c.012.117.09.198.191.198a.19.19 0 0 0 .023-.002c.121-.014.18-.103.175-.265.002-.168-.086-.359-.236-.512s-.331-.239-.496-.235z"/></svg>