<svg xmlns="http://www.w3.org/2000/svg" width="20" height="20" viewBox="0 0 5.292 5.292" xmlns:v="https://vecta.io/nano"><path d="M4.976.599a.14.14 0 0 0-.055.009L.275 2.323c-.115.042-.114.198.001.239l1.132.404.438 1.349c.028.086.139.118.212.061l.631-.492c.066-.052.16-.054.229-.006l1.138.791c.078.055.19.014.209-.077L5.1.753c.017-.08-.046-.15-.124-.154zm-.966.842c.03.001.053.039.025.064L2.209 3.13c-.064.057-.106.134-.117.217l-.063.441c-.008.059-.095.065-.112.008l-.239-.805c-.027-.092.013-.19.098-.24l2.213-1.305c.007-.004.015-.006.022-.006z"/></svg>