<svg width="195" height="40" viewBox="0 0 195 40" fill="none" xmlns="http://www.w3.org/2000/svg">
<path opacity="0.2" d="M36.0632 0H7.25006C3.25083 0 0 3.43558 0 7.60736V39.3619C0 40 0.795168 40.2454 1.12259 39.7055C2.0347 38.2086 3.39116 36.5399 5.07504 34.773C8.32588 31.362 11.7872 29.6442 16.2542 29.6442L36.0632 29.5951C40.0391 29.5951 43.3133 26.184 43.3133 21.9877V7.60736C43.3133 3.43558 40.0624 0 36.0632 0ZM10.3372 17.6442C9.0275 17.6442 7.97507 16.5399 7.97507 15.1656C7.97507 13.7914 9.0275 12.6871 10.3372 12.6871C11.6469 12.6871 12.6993 13.7914 12.6993 15.1656C12.7227 16.5399 11.6469 17.6442 10.3372 17.6442ZM21.3292 17.6442C20.0195 17.6442 18.9671 16.5399 18.9671 15.1656C18.9671 13.7914 20.0195 12.6871 21.3292 12.6871C22.6389 12.6871 23.6913 13.7914 23.6913 15.1656C23.7147 16.5399 22.6389 17.6442 21.3292 17.6442ZM32.3213 17.6442C31.0116 17.6442 29.9591 16.5399 29.9591 15.1656C29.9591 13.7914 31.0116 12.6871 32.3213 12.6871C33.6309 12.6871 34.6834 13.7914 34.6834 15.1656C34.6834 16.5399 33.6309 17.6442 32.3213 17.6442Z" fill="#1BA2FC"/>
<path d="M58.1174 0.932617H66.0691C70.4659 0.932617 72.4305 4.27004 72.4305 7.58292C72.4305 10.9449 70.4659 14.2087 66.0691 14.2087H62.257V21.2271H58.1408V0.932617H58.1174ZM62.2336 4.7363V10.4541H65.8586C67.449 10.4541 68.2909 8.93262 68.2909 7.60746C68.2909 6.33139 67.4957 4.76084 65.9522 4.76084H62.2336V4.7363Z" fill="#1BA2FC"/>
<path d="M84.5683 19.6813C83.7264 21.0065 81.7619 21.4973 80.7562 21.4973C77.4118 21.4973 74.0674 18.7488 74.0674 14.3317C74.0674 9.91448 77.4118 7.16602 80.7562 7.16602C81.5981 7.16602 83.5627 7.46049 84.5683 8.98197V7.46049H88.4506V21.2028H84.5683V19.6813ZM81.4111 17.62C83.0014 17.62 84.5917 16.4175 84.5917 14.3562C84.5917 12.2948 83.0248 11.0924 81.4111 11.0924C79.7739 11.0924 78.1368 12.393 78.1368 14.3562C78.1134 16.3194 79.7739 17.62 81.4111 17.62Z" fill="#1BA2FC"/>
<path d="M99.8872 7.48506V10.7243H97.1275V21.2274H93.2452V10.7243H90.8597V7.48506H93.2452V2.20898H97.1275V7.48506H99.8872Z" fill="#1BA2FC"/>
<path d="M106.178 21.227H102.273V0H106.178V9.61963C106.716 7.90184 108.611 7.16564 109.85 7.16564C113.312 7.16564 115.089 9.57055 115.089 13.7423V21.227C114.434 21.227 111.838 21.227 111.183 21.227V13.8896C111.183 12.0982 109.944 11.1411 108.774 11.1411C107.535 11.1411 106.155 11.8528 106.155 13.9386V21.227H106.178Z" fill="#1BA2FC"/>
<path d="M127.204 3.92625H125.777C124.42 3.92625 123.789 4.93239 123.789 6.55202V7.48454H126.432V10.7238H123.789V21.2269H119.86V10.7238H117.381V7.48454H119.86V6.55202C119.86 2.33116 122.012 0.0244141 125.777 0.0244141H127.204V3.92625Z" fill="#1BA2FC"/>
<path d="M130.758 0C132.068 0 133.144 1.03067 133.144 2.38037C133.144 3.73006 132.068 4.78528 130.758 4.78528C129.449 4.78528 128.326 3.73006 128.326 2.38037C128.326 1.03067 129.449 0 130.758 0ZM132.699 21.227H128.817V7.48466H132.699V21.227Z" fill="#1BA2FC"/>
<path d="M140.207 21.2272H136.301V7.48491H140.207V9.49718C140.909 8.12295 142.452 7.19043 143.996 7.19043C146.942 7.19043 148.79 9.10454 148.79 13.0309V21.2518C148.135 21.2518 145.516 21.2518 144.884 21.2518V13.8898C144.884 12.0739 143.926 11.1414 142.616 11.1414C141.236 11.1414 140.207 11.853 140.207 13.9389V21.2272Z" fill="#1BA2FC"/>
<path d="M161.677 21.227V19.5092C161.022 20.7853 159.455 21.5215 157.841 21.5215C154.473 21.5215 151.503 18.7239 151.503 14.4049C151.503 9.98773 154.473 7.19018 157.841 7.19018C159.478 7.19018 161.045 7.90184 161.677 9.15338V0H165.559V21.227H161.677ZM158.543 11.0429C156.882 11.0429 155.502 12.3436 155.502 14.3068C155.502 16.3436 156.882 17.6442 158.543 17.6442C160.18 17.6442 161.583 16.2945 161.583 14.3068C161.583 12.2454 160.156 11.0429 158.543 11.0429Z" fill="#1BA2FC"/>
<path d="M181.182 18.7242C179.872 20.7855 177.416 21.5217 175.194 21.5217C171.429 21.5217 168.342 18.626 168.342 14.307C168.342 9.98798 171.429 7.19043 175.194 7.19043C178.936 7.19043 181.907 10.1107 181.907 14.4297C181.907 14.7733 181.883 15.3377 181.86 15.7058H172.271C172.458 17.3009 174.119 18.0125 175.498 18.0125C176.574 18.0125 177.72 17.5953 178.352 16.7119L181.182 18.7242ZM177.977 13.1291C177.79 11.4604 176.317 10.7733 175.218 10.7733C174.119 10.7733 172.645 11.3867 172.294 13.1291H177.977Z" fill="#1BA2FC"/>
<path d="M188.478 21.2274H184.572V7.48503H188.478V10.7979C189.156 8.24577 190.84 7.16602 192.173 7.16602C193.109 7.16602 193.81 7.33779 194.418 7.65681L193.717 11.3378C193.015 10.9942 192.337 10.9206 191.729 10.9206C189.484 10.9206 188.478 12.7856 188.478 16.393V21.2274Z" fill="#1BA2FC"/>
<path d="M60.5262 29.9873C62.1867 29.9873 63.4964 31.3861 63.4964 33.1039C63.4964 34.8217 62.1867 36.2204 60.5262 36.2204C58.8891 36.2204 57.5794 34.8217 57.5794 33.1039C57.5794 31.3615 58.8891 29.9873 60.5262 29.9873ZM60.5262 34.748C61.3915 34.748 62.0698 34.0118 62.0698 33.1039C62.0698 32.1959 61.3681 31.4597 60.5262 31.4597C59.6843 31.4597 58.9826 32.1959 58.9826 33.1039C58.9826 34.0118 59.6609 34.748 60.5262 34.748Z" fill="#1BA2FC"/>
<path d="M70.5594 30.0615V36.1474H69.3198L67.5424 32.8345V36.1474H66.1392V30.0615H67.4021L69.1327 33.3499V30.0615H70.5594Z" fill="#1BA2FC"/>
<path d="M73.5294 36.1474V30.0615H74.956V34.8468H77.0375V36.1474H73.5294Z" fill="#1BA2FC"/>
<path d="M79.5868 30.0615H80.99V36.1474H79.5868V30.0615Z" fill="#1BA2FC"/>
<path d="M88.3806 30.0615V36.1474H87.1411L85.3637 32.8345V36.1474H83.9604V30.0615H85.2234L86.954 33.3499V30.0615H88.3806Z" fill="#1BA2FC"/>
<path d="M91.3507 36.1474V30.0615H95.1161V31.3621H92.7539V32.54H94.8354V33.7916H92.7539V34.8713H95.1862V36.1719H91.3507V36.1474Z" fill="#1BA2FC"/>
<path d="M101.618 36.1474V30.0615H105.383V31.3621H103.021V32.54H105.102V33.7916H103.021V34.8713H105.453V36.1719H101.618V36.1474Z" fill="#1BA2FC"/>
<path d="M112.61 30.0615V36.1474H111.37L109.593 32.8345V36.1474H108.19V30.0615H109.452L111.183 33.3499V30.0615H112.61Z" fill="#1BA2FC"/>
<path d="M119.462 31.975C119.158 31.5824 118.737 31.337 118.246 31.337C117.357 31.337 116.679 32.1223 116.679 33.1039C116.679 34.0609 117.357 34.8707 118.246 34.8707C118.924 34.8707 119.439 34.6253 119.579 34.0609H117.965V32.883H121.123C121.123 35.2143 119.93 36.2204 118.269 36.2204C116.586 36.2204 115.276 34.8217 115.276 33.1039C115.276 31.3615 116.586 29.9873 118.269 29.9873C119.205 29.9873 120.023 30.4045 120.538 31.0671L119.462 31.975Z" fill="#1BA2FC"/>
<path d="M123.648 36.1474V30.0615H125.075V34.8468H127.157V36.1474H123.648Z" fill="#1BA2FC"/>
<path d="M129.682 30.0615H131.086V36.1474H129.682V30.0615Z" fill="#1BA2FC"/>
<path d="M135.179 34.331C135.202 34.65 135.412 34.92 135.904 34.92C136.254 34.92 136.629 34.7482 136.629 34.3801C136.629 34.2819 136.629 34.0856 136.044 33.8647L135.366 33.6193C134.079 33.2512 133.845 32.3923 133.845 31.8279C133.845 30.7236 134.711 29.9629 135.88 29.9629C137.026 29.9629 137.868 30.65 137.868 31.8525H136.465C136.465 31.5334 136.278 31.288 135.857 31.288C135.483 31.288 135.249 31.4844 135.249 31.7788C135.249 31.9015 135.272 32.1224 135.787 32.2696L136.441 32.4905C137.962 32.9813 138.055 33.9138 138.055 34.3555C138.055 35.7052 136.886 36.2206 135.904 36.2206C134.617 36.2206 133.775 35.4844 133.775 34.331H135.179Z" fill="#1BA2FC"/>
<path d="M143.855 30.0615H145.282V36.1474H143.855V33.7916H142.078V36.1474H140.675V30.0615H142.078V32.4664H143.855V30.0615Z" fill="#1BA2FC"/>
<path d="M153.07 34.331C153.093 34.65 153.304 34.92 153.795 34.92C154.146 34.92 154.52 34.7482 154.52 34.3801C154.52 34.2819 154.52 34.0856 153.935 33.8647L153.257 33.6193C151.971 33.2512 151.737 32.3923 151.737 31.8279C151.737 30.7236 152.602 29.9629 153.771 29.9629C154.917 29.9629 155.759 30.65 155.759 31.8525H154.356C154.356 31.5334 154.169 31.288 153.748 31.288C153.374 31.288 153.14 31.4844 153.14 31.7788C153.14 31.9015 153.163 32.1224 153.678 32.2696L154.333 32.4905C155.853 32.9813 155.946 33.9138 155.946 34.3555C155.946 35.7052 154.777 36.2206 153.795 36.2206C152.509 36.2206 151.667 35.4844 151.667 34.331H153.07Z" fill="#1BA2FC"/>
<path d="M163.664 34.8217C163.126 35.656 162.238 36.2204 161.209 36.2204C159.571 36.2204 158.262 34.8217 158.262 33.1039C158.262 31.3615 159.595 29.9873 161.209 29.9873C162.238 29.9873 163.15 30.5517 163.688 31.3861C163.781 31.3125 162.518 32.245 162.518 32.245C162.238 31.7787 161.77 31.4842 161.209 31.4842C160.343 31.4842 159.665 32.2204 159.665 33.1284C159.665 34.0364 160.343 34.7726 161.209 34.7726C161.77 34.7726 162.238 34.4781 162.518 34.0118L163.664 34.8217Z" fill="#1BA2FC"/>
<path d="M169.394 30.0615H170.821V36.1474H169.394V33.7916H167.617V36.1474H166.213V30.0615H167.617V32.4664H169.394V30.0615Z" fill="#1BA2FC"/>
<path d="M176.434 29.9873C178.094 29.9873 179.404 31.3861 179.404 33.1039C179.404 34.8217 178.094 36.2204 176.434 36.2204C174.797 36.2204 173.487 34.8217 173.487 33.1039C173.463 31.3615 174.797 29.9873 176.434 29.9873ZM176.434 34.748C177.299 34.748 177.977 34.0118 177.977 33.1039C177.977 32.1959 177.276 31.4597 176.434 31.4597C175.568 31.4597 174.89 32.1959 174.89 33.1039C174.89 34.0118 175.568 34.748 176.434 34.748Z" fill="#1BA2FC"/>
<path d="M184.666 29.9873C186.327 29.9873 187.636 31.3861 187.636 33.1039C187.636 34.8217 186.327 36.2204 184.666 36.2204C183.029 36.2204 181.719 34.8217 181.719 33.1039C181.719 31.3615 183.029 29.9873 184.666 29.9873ZM184.666 34.748C185.531 34.748 186.21 34.0118 186.21 33.1039C186.21 32.1959 185.508 31.4597 184.666 31.4597C183.801 31.4597 183.123 32.1959 183.123 33.1039C183.146 34.0118 183.801 34.748 184.666 34.748Z" fill="#1BA2FC"/>
<path d="M190.279 36.1474V30.0615H191.706V34.8468H193.787V36.1474H190.279Z" fill="#1BA2FC"/>
</svg>
