<svg xmlns="http://www.w3.org/2000/svg" width="106" height="20" viewBox="0 0 28.046 5.292" xmlns:v="https://vecta.io/nano"><path d="M.16.056c-.082 0-.12.011-.134.018C.022.089.014.126.014.202v4.89a.58.58 0 0 0 .012.132.6.6 0 0 0 .134.012h1.506c.075 0 .113-.008.128-.012.006-.014.017-.051.017-.132V2.847h-.59v1.907H.629V.538h.593v1.716h.59V.202c0-.086-.012-.118-.016-.122L1.784.068h-.001C1.778.068 1.745.056 1.665.056zm2.391 0c-.082 0-.12.011-.132.018A.45.45 0 0 0 2.407.2v4.89a.58.58 0 0 0 .012.132c.019.006.059.014.13.014H4.09c.079 0 .112-.011.119-.014-.002-.003.014-.038.014-.132V.202c0-.086-.013-.118-.016-.122L4.197.068c.002 0-.022-.013-.105-.013zm2.415 0c-.082 0-.119.011-.132.018A.45.45 0 0 0 4.823.2v2.409c0 .064.006.101.012.121.02.006.062.012.134.012h1.038v2.009h-.593V3.346h-.59v1.742a.58.58 0 0 0 .012.132c.019.008.06.016.132.016h1.506c.075 0 .113-.008.128-.012.006-.014.017-.051.017-.132V2.406c0-.086-.012-.118-.016-.123l-.011-.009-.001.001c-.006-.001-.039-.013-.119-.013H5.436V.538h.593v1.131h.59V.202c0-.086-.012-.118-.016-.122L6.591.068C6.586.068 6.553.056 6.473.056zm2.246 0v5.181h.614V.538h.593v4.698h.615V.538h.605v4.698h.6V.202c0-.086-.012-.118-.015-.122l-.011-.011c-.003-.002-.038-.013-.107-.013zm3.777 0c-.082 0-.12.011-.132.018a.45.45 0 0 0-.012.127v4.89a.58.58 0 0 0 .012.132c.02.006.062.014.132.014h1.54c.079 0 .112-.011.119-.014-.002-.003.014-.038.014-.132V.202c0-.086-.013-.118-.016-.122l-.011-.011c0 .002-.024-.013-.107-.013zm2.413 0c-.082 0-.119.011-.132.018a.45.45 0 0 0-.012.127v2.409c0 .064.006.101.012.121.02.006.062.012.134.012h1.038v2.009h-.593V3.346h-.59v1.742a.58.58 0 0 0 .012.132c.019.008.06.016.132.016h1.506c.086 0 .123-.011.134-.014-.003-.003.012-.04.012-.131V2.406c0-.096-.015-.125-.017-.125l-.006-.006c-.006-.003-.038-.015-.123-.015h-1.038V.538h.593v1.131h.59V.202c0-.096-.015-.124-.017-.124l-.006-.006a.29.29 0 0 0-.123-.016zm3.187 0c-.082 0-.119.013-.132.018a.46.46 0 0 0-.012.127v2.409c0 .064.006.101.012.121a.5.5 0 0 0 .133.012h1.038v2.009h-.593V3.346h-.589v1.742a.57.57 0 0 0 .012.132c.02.008.059.016.132.016h.001 1.504c.086 0 .123-.011.134-.014-.002-.003.012-.04.012-.131V2.406c0-.096-.015-.125-.017-.125l-.007-.006c-.006-.003-.038-.015-.122-.015h-1.038V.538h.593v1.131h.59V.202c0-.096-.015-.124-.017-.124l-.007-.006c-.003-.003-.034-.016-.121-.016zm1.982 0v.483h.335v4.698h.614V.538h.346V.056zm1.616 0V5.09a.57.57 0 0 0 .012.132.5.5 0 0 0 .134.014h1.517c.079 0 .112-.011.119-.014-.002-.003.014-.04.014-.132V.056h-.59v4.698h-.593V.056zm2.406 0v5.181h1.556c.173 0 .213-.035.213-.036l.002-.002c.031-.033.05-.113.05-.228V.321c0-.168-.036-.214-.044-.222s-.047-.044-.222-.044zm2.415 0v5.181h.614V.056zm1.348.001c-.082 0-.119.013-.132.018a.46.46 0 0 0-.012.127v4.89a.57.57 0 0 0 .012.132c.02.005.061.012.132.012h1.541c.079 0 .112-.011.119-.014-.001-.003.014-.038.014-.132V.201c0-.086-.013-.118-.015-.122l-.008-.008c-.006-.003-.035-.014-.11-.014zm.469.481h.593v4.215h-.593zM3.018.538h.593v4.215h-.593zm8.439 0h.593v4.215h-.593zm11.751 0h.593v4.215h-.593z"/></svg>