<svg width="149" height="30" viewBox="0 0 149 30" fill="none" xmlns="http://www.w3.org/2000/svg">
<path d="M27.6384 0H5.55636C2.4914 0 0 2.57669 0 5.70552V29.5215C0 30 0.609407 30.184 0.860339 29.7791C1.55937 28.6564 2.59894 27.4049 3.88945 26.0797C6.38085 23.5215 9.03356 22.2331 12.457 22.2331L27.6384 22.1963C30.6854 22.1963 33.1948 19.638 33.1948 16.4908V5.70552C33.1948 2.57669 30.7034 0 27.6384 0ZM7.92229 13.2331C6.91856 13.2331 6.11199 12.4049 6.11199 11.3742C6.11199 10.3436 6.91856 9.51533 7.92229 9.51533C8.92602 9.51533 9.73259 10.3436 9.73259 11.3742C9.75051 12.4049 8.92602 13.2331 7.92229 13.2331ZM16.3464 13.2331C15.3427 13.2331 14.5361 12.4049 14.5361 11.3742C14.5361 10.3436 15.3427 9.51533 16.3464 9.51533C17.3502 9.51533 18.1567 10.3436 18.1567 11.3742C18.1747 12.4049 17.3502 13.2331 16.3464 13.2331ZM24.7706 13.2331C23.7669 13.2331 22.9603 12.4049 22.9603 11.3742C22.9603 10.3436 23.7669 9.51533 24.7706 9.51533C25.7743 9.51533 26.5809 10.3436 26.5809 11.3742C26.5809 12.4049 25.7743 13.2331 24.7706 13.2331Z" fill="white"/>
<path d="M44.5405 0.699219H50.6346C54.0043 0.699219 55.5099 3.20229 55.5099 5.68695C55.5099 8.20842 54.0043 10.6563 50.6346 10.6563H47.713V15.9201H44.5585V0.699219H44.5405ZM47.6951 3.55198V7.84032H50.4733C51.6921 7.84032 52.3374 6.69922 52.3374 5.70535C52.3374 4.7483 51.7279 3.57038 50.545 3.57038H47.6951V3.55198Z" fill="white"/>
<path d="M64.8122 14.7605C64.1669 15.7544 62.6613 16.1225 61.8906 16.1225C59.3275 16.1225 56.7644 14.0611 56.7644 10.7483C56.7644 7.43537 59.3275 5.37402 61.8906 5.37402C62.5358 5.37402 64.0414 5.59488 64.8122 6.73599V5.59488H67.7875V15.9016H64.8122V14.7605ZM62.3925 13.2145C63.6113 13.2145 64.8301 12.3127 64.8301 10.7667C64.8301 9.22065 63.6292 8.31881 62.3925 8.31881C61.1378 8.31881 59.8831 9.29427 59.8831 10.7667C59.8652 12.2391 61.1378 13.2145 62.3925 13.2145Z" fill="white"/>
<path d="M76.5523 5.6133V8.04275H74.4373V15.92H71.462V8.04275H69.6338V5.6133H71.462V1.65625H74.4373V5.6133H76.5523Z" fill="white"/>
<path d="M81.3739 15.9202H78.3806V0H81.3739V7.21472C81.7861 5.92638 83.2379 5.37423 84.1879 5.37423C86.8406 5.37423 88.2028 7.17791 88.2028 10.3067V15.9202C87.7009 15.9202 85.7114 15.9202 85.2095 15.9202V10.4172C85.2095 9.07362 84.2596 8.35583 83.3634 8.35583C82.4135 8.35583 81.356 8.88957 81.356 10.454V15.9202H81.3739Z" fill="white"/>
<path d="M97.4872 2.94494H96.3938C95.3542 2.94494 94.8703 3.69954 94.8703 4.91426V5.61365H96.8957V8.0431H94.8703V15.9204H91.8591V8.0431H89.9592V5.61365H91.8591V4.91426C91.8591 1.74862 93.5081 0.0185547 96.3938 0.0185547H97.4872V2.94494Z" fill="white"/>
<path d="M100.211 0C101.215 0 102.04 0.773006 102.04 1.78528C102.04 2.79755 101.215 3.58896 100.211 3.58896C99.2077 3.58896 98.3474 2.79755 98.3474 1.78528C98.3474 0.773006 99.2077 0 100.211 0ZM101.699 15.9202H98.7238V5.6135H101.699V15.9202Z" fill="white"/>
<path d="M107.453 15.9202H104.46V5.61344H107.453V7.12264C107.991 6.09197 109.174 5.39258 110.357 5.39258C112.615 5.39258 114.031 6.82816 114.031 9.77295V15.9386C113.529 15.9386 111.522 15.9386 111.038 15.9386V10.4171C111.038 9.05516 110.303 8.35577 109.299 8.35577C108.242 8.35577 107.453 8.88951 107.453 10.4539V15.9202Z" fill="white"/>
<path d="M123.907 15.9202V14.6319C123.405 15.589 122.204 16.1411 120.967 16.1411C118.386 16.1411 116.11 14.0429 116.11 10.8037C116.11 7.4908 118.386 5.39264 120.967 5.39264C122.222 5.39264 123.423 5.92638 123.907 6.86503V0H126.882V15.9202H123.907ZM121.505 8.28221C120.233 8.28221 119.175 9.25767 119.175 10.7301C119.175 12.2577 120.233 13.2331 121.505 13.2331C122.76 13.2331 123.835 12.2209 123.835 10.7301C123.835 9.18405 122.742 8.28221 121.505 8.28221Z" fill="white"/>
<path d="M138.855 14.0429C137.852 15.5889 135.97 16.141 134.267 16.141C131.381 16.141 129.015 13.9693 129.015 10.73C129.015 7.49074 131.381 5.39258 134.267 5.39258C137.135 5.39258 139.411 7.58276 139.411 10.822C139.411 11.0797 139.393 11.503 139.375 11.7791H132.026C132.17 12.9754 133.442 13.5091 134.5 13.5091C135.324 13.5091 136.203 13.1963 136.687 12.5337L138.855 14.0429ZM136.4 9.84657C136.256 8.59503 135.127 8.0797 134.285 8.0797C133.442 8.0797 132.313 8.53982 132.044 9.84657H136.4Z" fill="white"/>
<path d="M144.447 15.92H141.454V5.61329H144.447V8.09795C144.967 6.18384 146.258 5.37402 147.279 5.37402C147.996 5.37402 148.534 5.50286 149 5.74212L148.462 8.50286C147.925 8.24519 147.405 8.18997 146.939 8.18997C145.218 8.18997 144.447 9.58875 144.447 12.2943V15.92Z" fill="white"/>
<path d="M46.3866 22.4912C47.6591 22.4912 48.6629 23.5403 48.6629 24.8286C48.6629 26.117 47.6591 27.1661 46.3866 27.1661C45.1319 27.1661 44.1282 26.117 44.1282 24.8286C44.1282 23.5219 45.1319 22.4912 46.3866 22.4912ZM46.3866 26.0618C47.0497 26.0618 47.5695 25.5096 47.5695 24.8286C47.5695 24.1477 47.0318 23.5955 46.3866 23.5955C45.7413 23.5955 45.2036 24.1477 45.2036 24.8286C45.2036 25.5096 45.7234 26.0618 46.3866 26.0618Z" fill="white"/>
<path d="M54.0758 22.5469V27.1113H53.1259L51.7637 24.6266V27.1113H50.6882V22.5469H51.6561L52.9825 25.0131V22.5469H54.0758Z" fill="white"/>
<path d="M56.3521 27.1113V22.5469H57.4454V26.1358H59.0406V27.1113H56.3521Z" fill="white"/>
<path d="M60.9944 22.5469H62.0698V27.1113H60.9944V22.5469Z" fill="white"/>
<path d="M67.7338 22.5469V27.1113H66.7838L65.4216 24.6266V27.1113H64.3462V22.5469H65.3141L66.6404 25.0131V22.5469H67.7338Z" fill="white"/>
<path d="M70.01 27.1113V22.5469H72.8957V23.5223H71.0854V24.4058H72.6806V25.3444H71.0854V26.1542H72.9495V27.1297H70.01V27.1113Z" fill="white"/>
<path d="M77.8787 27.1113V22.5469H80.7644V23.5223H78.9541V24.4058H80.5493V25.3444H78.9541V26.1542H80.8181V27.1297H77.8787V27.1113Z" fill="white"/>
<path d="M86.3029 22.5469V27.1113H85.3529L83.9907 24.6266V27.1113H82.9153V22.5469H83.8832L85.2095 25.0131V22.5469H86.3029Z" fill="white"/>
<path d="M91.5543 23.982C91.3213 23.6875 90.9987 23.5035 90.6223 23.5035C89.9412 23.5035 89.4214 24.0924 89.4214 24.8286C89.4214 25.5464 89.9412 26.1538 90.6223 26.1538C91.1421 26.1538 91.5364 25.9697 91.6439 25.5464H90.4072V24.663H92.8269C92.8269 26.4115 91.9128 27.1661 90.6402 27.1661C89.3497 27.1661 88.3459 26.117 88.3459 24.8286C88.3459 23.5219 89.3497 22.4912 90.6402 22.4912C91.3571 22.4912 91.9845 22.8041 92.3788 23.301L91.5543 23.982Z" fill="white"/>
<path d="M94.7627 27.1113V22.5469H95.856V26.1358H97.4513V27.1113H94.7627Z" fill="white"/>
<path d="M99.3872 22.5469H100.463V27.1113H99.3872V22.5469Z" fill="white"/>
<path d="M103.599 25.7487C103.617 25.988 103.778 26.1905 104.155 26.1905C104.424 26.1905 104.71 26.0616 104.71 25.7855C104.71 25.7119 104.71 25.5647 104.262 25.399L103.742 25.215C102.757 24.9389 102.577 24.2947 102.577 23.8714C102.577 23.0432 103.241 22.4727 104.137 22.4727C105.015 22.4727 105.66 22.988 105.66 23.8898H104.585C104.585 23.6506 104.442 23.4665 104.119 23.4665C103.832 23.4665 103.653 23.6138 103.653 23.8346C103.653 23.9266 103.671 24.0923 104.065 24.2027L104.567 24.3684C105.732 24.7365 105.804 25.4359 105.804 25.7671C105.804 26.7794 104.908 27.1659 104.155 27.1659C103.169 27.1659 102.524 26.6138 102.524 25.7487H103.599Z" fill="white"/>
<path d="M110.249 22.5469H111.342V27.1113H110.249V25.3444H108.887V27.1113H107.811V22.5469H108.887V24.3506H110.249V22.5469Z" fill="white"/>
<path d="M117.311 25.7487C117.329 25.988 117.49 26.1905 117.866 26.1905C118.135 26.1905 118.422 26.0616 118.422 25.7855C118.422 25.7119 118.422 25.5647 117.974 25.399L117.454 25.215C116.468 24.9389 116.289 24.2947 116.289 23.8714C116.289 23.0432 116.952 22.4727 117.848 22.4727C118.727 22.4727 119.372 22.988 119.372 23.8898H118.297C118.297 23.6506 118.153 23.4665 117.831 23.4665C117.544 23.4665 117.365 23.6138 117.365 23.8346C117.365 23.9266 117.382 24.0923 117.777 24.2027L118.279 24.3684C119.444 24.7365 119.515 25.4359 119.515 25.7671C119.515 26.7794 118.619 27.1659 117.866 27.1659C116.881 27.1659 116.235 26.6138 116.235 25.7487H117.311Z" fill="white"/>
<path d="M125.43 26.117C125.018 26.7427 124.337 27.1661 123.548 27.1661C122.294 27.1661 121.29 26.117 121.29 24.8286C121.29 23.5219 122.311 22.4912 123.548 22.4912C124.337 22.4912 125.036 22.9145 125.448 23.5403C125.52 23.4851 124.552 24.1845 124.552 24.1845C124.337 23.8348 123.978 23.6139 123.548 23.6139C122.885 23.6139 122.365 24.1661 122.365 24.847C122.365 25.528 122.885 26.0802 123.548 26.0802C123.978 26.0802 124.337 25.8593 124.552 25.5096L125.43 26.117Z" fill="white"/>
<path d="M129.821 22.5469H130.915V27.1113H129.821V25.3444H128.459V27.1113H127.384V22.5469H128.459V24.3506H129.821V22.5469Z" fill="white"/>
<path d="M135.217 22.4912C136.489 22.4912 137.493 23.5403 137.493 24.8286C137.493 26.117 136.489 27.1661 135.217 27.1661C133.962 27.1661 132.958 26.117 132.958 24.8286C132.94 23.5219 133.962 22.4912 135.217 22.4912ZM135.217 26.0618C135.88 26.0618 136.4 25.5096 136.4 24.8286C136.4 24.1477 135.862 23.5955 135.217 23.5955C134.553 23.5955 134.034 24.1477 134.034 24.8286C134.034 25.5096 134.553 26.0618 135.217 26.0618Z" fill="white"/>
<path d="M141.526 22.4912C142.798 22.4912 143.802 23.5403 143.802 24.8286C143.802 26.117 142.798 27.1661 141.526 27.1661C140.271 27.1661 139.267 26.117 139.267 24.8286C139.267 23.5219 140.271 22.4912 141.526 22.4912ZM141.526 26.0618C142.189 26.0618 142.709 25.5096 142.709 24.8286C142.709 24.1477 142.171 23.5955 141.526 23.5955C140.863 23.5955 140.343 24.1477 140.343 24.8286C140.361 25.5096 140.863 26.0618 141.526 26.0618Z" fill="white"/>
<path d="M145.827 27.1113V22.5469H146.921V26.1358H148.516V27.1113H145.827Z" fill="white"/>
</svg>
